<svg xmlns="http://www.w3.org/2000/svg" width="510.174" height="412.03" viewBox="0 0 510.174 412.03">
  <path id="Icon_zocial-cart" data-name="Icon zocial-cart" d="M-2.07,28.373c0-6.873,1.979-12.522,5.922-17a19.161,19.161,0,0,1,15.032-6.7H125.929a19.353,19.353,0,0,1,12.982,4.893,23.326,23.326,0,0,1,7.516,13.134l10.932,50.476h307l3.2-10.816q4.548-16.49,19.587-16.482c2.733,0,4.712.338,5.922,1.03A19.674,19.674,0,0,1,504,55.156a24.488,24.488,0,0,1,4.1,13.907,32.289,32.289,0,0,1-.911,6.7L453.443,278.176a22.493,22.493,0,0,1-7.288,12.361,18.548,18.548,0,0,1-12.3,4.635H179.224a18.836,18.836,0,0,1-12.982-5.134,24.485,24.485,0,0,1-7.516-12.893l-49.2-225.6H18.884a19.418,19.418,0,0,1-14.8-6.7A23.462,23.462,0,0,1-2.07,28.373Zm169.451,91.68,28.242,127.734H418.368l.9-4.619,32.811-123.1h-284.7Zm19.132,249.288q0-19.58,12.527-33.479t29.836-13.907q17.3,0,29.608,13.907t12.3,33.479q0,19.556-12.3,33.479-12.3,13.907-29.608,13.89-17.3,0-29.836-13.89Q186.527,388.913,186.512,369.341Zm29.608-209.113h75.615V207.6H225.217Zm111.6,47.385.455-47.369H401.97l-10.932,47.369Zm16.854,161.728q0-19.58,12.541-33.479,12.512-13.907,29.836-13.907t29.608,13.907q12.3,13.907,12.285,33.479,0,19.556-12.285,33.479-12.3,13.907-29.608,13.89-17.3,0-29.836-13.89Q344.582,388.913,344.575,369.341Z" transform="translate(2.07 -4.68)" fill="#e8a8a8"/>
</svg>
